<svg xmlns="http://www.w3.org/2000/svg" aria-hidden="true" style="position:absolute;width:0;height:0;overflow:hidden"><defs><symbol id="idea" viewBox="0 0 32 32"><path d="M12 28c0 .733.6 1.333 1.333 1.333h5.333c.733 0 1.333-.6 1.333-1.333v-1.333h-8V28zm4-25.333c-5.147 0-9.333 4.187-9.333 9.333 0 3.173 1.587 5.96 4 7.653v3.013c0 .733.6 1.333 1.333 1.333h8c.733 0 1.333-.6 1.333-1.333v-3.013c2.413-1.693 4-4.48 4-7.653 0-5.147-4.187-9.333-9.333-9.333zm3.8 14.8-1.133.8v3.067h-5.333v-3.067l-1.133-.8A6.662 6.662 0 0 1 9.334 12c0-3.68 2.987-6.667 6.667-6.667S22.668 8.32 22.668 12a6.664 6.664 0 0 1-2.867 5.467z"/></symbol><symbol id="thoughts" viewBox="0 0 32 32"><path d="M14.967 19.533h2l.1-1.467q.4-.067.75-.283t.617-.483l1.4.467.933-1.6-1-.8q.167-.467.167-.967t-.167-.967l1-.8-.933-1.6-1.4.467q-.267-.267-.633-.467t-.733-.3l-.1-1.467h-2l-.1 1.467q-.367.1-.733.3t-.633.467l-1.4-.467-.933 1.6 1 .8q-.167.467-.167.967t.167.967l-1 .8.933 1.6 1.4-.467q.267.267.617.483t.75.283l.1 1.467zm1-2.8q-.967 0-1.65-.683t-.683-1.65.683-1.65 1.65-.683 1.65.683.683 1.65-.683 1.65-1.65.683zM8 29.333V23.6q-1.9-1.733-2.95-4.05T4 14.667q0-5 3.5-8.5t8.5-3.5q4.167 0 7.383 2.45t4.183 6.383l2.133 8.5h-4.367v6.667h-5.333v2.667h-12z"/></symbol><symbol id="edit" viewBox="0 0 32 32"><path d="M27 0a5 5 0 0 1 4 8l-2 2-7-7 2-2c.836-.628 1.874-1 3-1zM2 23l-2 9 9-2 18.5-18.5-7-7L2 23"/></symbol><symbol id="archive" viewBox="0 0 32 32"><path d="M26 2H6L0 8v21a1 1 0 0 0 1 1h30a1 1 0 0 0 1-1V8l-6-6zM16 26 6 18h6v-6h8v6h6l-10 8zM4.828 6l2-2h18.343l2 2H4.828z"/></symbol><symbol id="quotes" viewBox="0 0 32 32"><path d="M25 20a7 7 0 1 1 7-7l.031 1c0 7.732-6.268 14-14 14v-4a9.934 9.934 0 0 0 7.071-2.929c.364-.364.695-.75.995-1.157A7.081 7.081 0 0 1 25 20zM7 20a7 7 0 1 1 7-7l.031 1c0 7.732-6.268 14-14 14v-4a9.934 9.934 0 0 0 7.071-2.929c.364-.364.695-.75.995-1.157A7.081 7.081 0 0 1 7 20z"/></symbol><symbol id="trash" viewBox="0 0 32 32"><path d="M4 10v20c0 1.1.9 2 2 2h18c1.1 0 2-.9 2-2V10H4zm6 0h-2V14h2v14zM26.5 4H20V1.5c0-.825-.675-1.5-1.5-1.5h-7c-.825 0-1.5.675-1.5 1.5V4H3.5C2.675 4 2 4.675 2 5.5V8h26V5.5c0-.825-.675-1.5-1.5-1.5zM18"/></symbol><symbol id="tasks" viewBox="0 0 32 32"><path d="M29 4h-9a4 4 0 0 0-8 0H3a1 1 0 0 0-1 1v26a1 1 0 0 0 1 1h26a1 1 0 0 0 1-1V5a1 1 0 0 0-1-1zM16 2a2 2 0 1 1 .001 3.999A2 2 0 0 1 16 2zm12 28H4V6h4v3a1 1 0 0 0 1 1h14a1 1 0 0 0 1-1V6h4v24z"/><path d="m14 26.828-6.414-7.414 1.828-1.828L14 21.172l8.586-7.586 1.829 1.828z"/></symbol></defs></svg>